<mxfile host="app.diagrams.net" modified="2021-09-07T03:13:44.329Z" agent="5.0 (Macintosh; Intel Mac OS X 10_15_7) AppleWebKit/537.36 (KHTML, like Gecko) Chrome/92.0.4515.159 Safari/537.36" etag="u4JXC7IUTzAR9OlPkUR7" version="14.9.8" type="github">
  <diagram id="g7DShIPE9myxs7cQCo8G" name="Page-1">
    <mxGraphModel dx="1426" dy="680" grid="1" gridSize="10" guides="1" tooltips="1" connect="1" arrows="1" fold="1" page="1" pageScale="1" pageWidth="827" pageHeight="1169" math="0" shadow="0">
      <root>
        <mxCell id="0" />
        <mxCell id="1" parent="0" />
        <mxCell id="bnO3rSalis2aoiANEbuE-3" value="" style="edgeStyle=orthogonalEdgeStyle;rounded=0;orthogonalLoop=1;jettySize=auto;html=1;exitX=1;exitY=1;exitDx=0;exitDy=0;entryX=0;entryY=1;entryDx=0;entryDy=0;" parent="1" source="bnO3rSalis2aoiANEbuE-1" target="bnO3rSalis2aoiANEbuE-2" edge="1">
          <mxGeometry relative="1" as="geometry" />
        </mxCell>
        <mxCell id="bnO3rSalis2aoiANEbuE-4" value="1" style="edgeLabel;html=1;align=center;verticalAlign=middle;resizable=0;points=[];" parent="bnO3rSalis2aoiANEbuE-3" vertex="1" connectable="0">
          <mxGeometry x="-0.05" y="1" relative="1" as="geometry">
            <mxPoint as="offset" />
          </mxGeometry>
        </mxCell>
        <mxCell id="bnO3rSalis2aoiANEbuE-1" value="前端" style="ellipse;whiteSpace=wrap;html=1;aspect=fixed;" parent="1" vertex="1">
          <mxGeometry x="110" y="270" width="80" height="80" as="geometry" />
        </mxCell>
        <mxCell id="bnO3rSalis2aoiANEbuE-7" value="" style="edgeStyle=orthogonalEdgeStyle;rounded=0;orthogonalLoop=1;jettySize=auto;html=1;exitX=1;exitY=1;exitDx=0;exitDy=0;entryX=0;entryY=1;entryDx=0;entryDy=0;" parent="1" source="bnO3rSalis2aoiANEbuE-2" target="bnO3rSalis2aoiANEbuE-6" edge="1">
          <mxGeometry relative="1" as="geometry" />
        </mxCell>
        <mxCell id="bnO3rSalis2aoiANEbuE-8" value="2" style="edgeLabel;html=1;align=center;verticalAlign=middle;resizable=0;points=[];" parent="bnO3rSalis2aoiANEbuE-7" vertex="1" connectable="0">
          <mxGeometry relative="1" as="geometry">
            <mxPoint as="offset" />
          </mxGeometry>
        </mxCell>
        <mxCell id="diJYGg4Zcv_C8yExAffO-8" value="4" style="edgeStyle=orthogonalEdgeStyle;rounded=0;orthogonalLoop=1;jettySize=auto;html=1;exitX=0;exitY=0;exitDx=0;exitDy=0;entryX=1;entryY=0;entryDx=0;entryDy=0;" parent="1" source="bnO3rSalis2aoiANEbuE-2" target="bnO3rSalis2aoiANEbuE-1" edge="1">
          <mxGeometry relative="1" as="geometry" />
        </mxCell>
        <mxCell id="bnO3rSalis2aoiANEbuE-2" value="任务调度" style="ellipse;whiteSpace=wrap;html=1;aspect=fixed;" parent="1" vertex="1">
          <mxGeometry x="270" y="270" width="80" height="80" as="geometry" />
        </mxCell>
        <mxCell id="diJYGg4Zcv_C8yExAffO-9" value="3" style="edgeStyle=orthogonalEdgeStyle;rounded=0;orthogonalLoop=1;jettySize=auto;html=1;exitX=0;exitY=0;exitDx=0;exitDy=0;entryX=1;entryY=0;entryDx=0;entryDy=0;" parent="1" source="bnO3rSalis2aoiANEbuE-6" target="bnO3rSalis2aoiANEbuE-2" edge="1">
          <mxGeometry relative="1" as="geometry" />
        </mxCell>
        <mxCell id="bnO3rSalis2aoiANEbuE-6" value="网关" style="ellipse;whiteSpace=wrap;html=1;aspect=fixed;" parent="1" vertex="1">
          <mxGeometry x="430" y="270" width="80" height="80" as="geometry" />
        </mxCell>
        <mxCell id="bnO3rSalis2aoiANEbuE-21" value="建图流程：" style="text;html=1;strokeColor=none;fillColor=none;align=center;verticalAlign=middle;whiteSpace=wrap;rounded=0;" parent="1" vertex="1">
          <mxGeometry x="110" y="120" width="80" height="40" as="geometry" />
        </mxCell>
        <mxCell id="diJYGg4Zcv_C8yExAffO-10" value="步骤一：开始建图" style="text;html=1;strokeColor=none;fillColor=none;align=left;verticalAlign=middle;whiteSpace=wrap;rounded=0;" parent="1" vertex="1">
          <mxGeometry x="120" y="190" width="160" height="20" as="geometry" />
        </mxCell>
        <mxCell id="diJYGg4Zcv_C8yExAffO-11" value="" style="edgeStyle=orthogonalEdgeStyle;rounded=0;orthogonalLoop=1;jettySize=auto;html=1;exitX=1;exitY=1;exitDx=0;exitDy=0;entryX=0;entryY=1;entryDx=0;entryDy=0;" parent="1" source="diJYGg4Zcv_C8yExAffO-14" target="diJYGg4Zcv_C8yExAffO-18" edge="1">
          <mxGeometry relative="1" as="geometry" />
        </mxCell>
        <mxCell id="diJYGg4Zcv_C8yExAffO-12" value="1" style="edgeLabel;html=1;align=center;verticalAlign=middle;resizable=0;points=[];" parent="diJYGg4Zcv_C8yExAffO-11" vertex="1" connectable="0">
          <mxGeometry x="-0.05" y="1" relative="1" as="geometry">
            <mxPoint as="offset" />
          </mxGeometry>
        </mxCell>
        <mxCell id="diJYGg4Zcv_C8yExAffO-14" value="前端" style="ellipse;whiteSpace=wrap;html=1;aspect=fixed;" parent="1" vertex="1">
          <mxGeometry x="110" y="560" width="80" height="80" as="geometry" />
        </mxCell>
        <mxCell id="diJYGg4Zcv_C8yExAffO-15" value="" style="edgeStyle=orthogonalEdgeStyle;rounded=0;orthogonalLoop=1;jettySize=auto;html=1;exitX=1;exitY=1;exitDx=0;exitDy=0;entryX=0;entryY=1;entryDx=0;entryDy=0;" parent="1" source="diJYGg4Zcv_C8yExAffO-18" target="diJYGg4Zcv_C8yExAffO-22" edge="1">
          <mxGeometry relative="1" as="geometry" />
        </mxCell>
        <mxCell id="diJYGg4Zcv_C8yExAffO-16" value="2" style="edgeLabel;html=1;align=center;verticalAlign=middle;resizable=0;points=[];" parent="diJYGg4Zcv_C8yExAffO-15" vertex="1" connectable="0">
          <mxGeometry relative="1" as="geometry">
            <mxPoint as="offset" />
          </mxGeometry>
        </mxCell>
        <mxCell id="diJYGg4Zcv_C8yExAffO-17" value="5" style="edgeStyle=orthogonalEdgeStyle;rounded=0;orthogonalLoop=1;jettySize=auto;html=1;exitX=0;exitY=0;exitDx=0;exitDy=0;entryX=1;entryY=0;entryDx=0;entryDy=0;" parent="1" source="diJYGg4Zcv_C8yExAffO-18" target="diJYGg4Zcv_C8yExAffO-14" edge="1">
          <mxGeometry relative="1" as="geometry" />
        </mxCell>
        <mxCell id="diJYGg4Zcv_C8yExAffO-18" value="任务调度" style="ellipse;whiteSpace=wrap;html=1;aspect=fixed;" parent="1" vertex="1">
          <mxGeometry x="270" y="560" width="80" height="80" as="geometry" />
        </mxCell>
        <mxCell id="diJYGg4Zcv_C8yExAffO-19" value="" style="edgeStyle=orthogonalEdgeStyle;rounded=0;orthogonalLoop=1;jettySize=auto;html=1;" parent="1" source="diJYGg4Zcv_C8yExAffO-22" target="diJYGg4Zcv_C8yExAffO-24" edge="1">
          <mxGeometry relative="1" as="geometry" />
        </mxCell>
        <mxCell id="diJYGg4Zcv_C8yExAffO-20" value="3" style="edgeLabel;html=1;align=center;verticalAlign=middle;resizable=0;points=[];" parent="diJYGg4Zcv_C8yExAffO-19" vertex="1" connectable="0">
          <mxGeometry x="0.025" y="1" relative="1" as="geometry">
            <mxPoint as="offset" />
          </mxGeometry>
        </mxCell>
        <mxCell id="diJYGg4Zcv_C8yExAffO-21" value="4" style="edgeStyle=orthogonalEdgeStyle;rounded=0;orthogonalLoop=1;jettySize=auto;html=1;exitX=0;exitY=0;exitDx=0;exitDy=0;entryX=1;entryY=0;entryDx=0;entryDy=0;" parent="1" source="diJYGg4Zcv_C8yExAffO-22" target="diJYGg4Zcv_C8yExAffO-18" edge="1">
          <mxGeometry relative="1" as="geometry" />
        </mxCell>
        <mxCell id="diJYGg4Zcv_C8yExAffO-22" value="资源服务器&lt;br&gt;ftp客户端" style="ellipse;whiteSpace=wrap;html=1;aspect=fixed;" parent="1" vertex="1">
          <mxGeometry x="430" y="560" width="80" height="80" as="geometry" />
        </mxCell>
        <mxCell id="diJYGg4Zcv_C8yExAffO-24" value="网关" style="ellipse;whiteSpace=wrap;html=1;aspect=fixed;" parent="1" vertex="1">
          <mxGeometry x="590" y="560" width="80" height="80" as="geometry" />
        </mxCell>
        <mxCell id="diJYGg4Zcv_C8yExAffO-25" value="步骤二：文件下载" style="text;html=1;strokeColor=none;fillColor=none;align=center;verticalAlign=middle;whiteSpace=wrap;rounded=0;" parent="1" vertex="1">
          <mxGeometry x="120" y="470" width="100" height="20" as="geometry" />
        </mxCell>
        <mxCell id="diJYGg4Zcv_C8yExAffO-26" value="" style="edgeStyle=orthogonalEdgeStyle;rounded=0;orthogonalLoop=1;jettySize=auto;html=1;exitX=1;exitY=1;exitDx=0;exitDy=0;entryX=0;entryY=1;entryDx=0;entryDy=0;" parent="1" source="diJYGg4Zcv_C8yExAffO-28" target="diJYGg4Zcv_C8yExAffO-32" edge="1">
          <mxGeometry relative="1" as="geometry" />
        </mxCell>
        <mxCell id="diJYGg4Zcv_C8yExAffO-27" value="1" style="edgeLabel;html=1;align=center;verticalAlign=middle;resizable=0;points=[];" parent="diJYGg4Zcv_C8yExAffO-26" vertex="1" connectable="0">
          <mxGeometry x="-0.05" y="1" relative="1" as="geometry">
            <mxPoint as="offset" />
          </mxGeometry>
        </mxCell>
        <mxCell id="diJYGg4Zcv_C8yExAffO-28" value="前端" style="ellipse;whiteSpace=wrap;html=1;aspect=fixed;" parent="1" vertex="1">
          <mxGeometry x="110" y="790" width="80" height="80" as="geometry" />
        </mxCell>
        <mxCell id="diJYGg4Zcv_C8yExAffO-29" value="" style="edgeStyle=orthogonalEdgeStyle;rounded=0;orthogonalLoop=1;jettySize=auto;html=1;exitX=1;exitY=1;exitDx=0;exitDy=0;entryX=0;entryY=1;entryDx=0;entryDy=0;" parent="1" source="diJYGg4Zcv_C8yExAffO-32" target="diJYGg4Zcv_C8yExAffO-36" edge="1">
          <mxGeometry relative="1" as="geometry" />
        </mxCell>
        <mxCell id="diJYGg4Zcv_C8yExAffO-30" value="2" style="edgeLabel;html=1;align=center;verticalAlign=middle;resizable=0;points=[];" parent="diJYGg4Zcv_C8yExAffO-29" vertex="1" connectable="0">
          <mxGeometry relative="1" as="geometry">
            <mxPoint as="offset" />
          </mxGeometry>
        </mxCell>
        <mxCell id="diJYGg4Zcv_C8yExAffO-31" value="5" style="edgeStyle=orthogonalEdgeStyle;rounded=0;orthogonalLoop=1;jettySize=auto;html=1;exitX=0;exitY=0;exitDx=0;exitDy=0;entryX=1;entryY=0;entryDx=0;entryDy=0;" parent="1" source="diJYGg4Zcv_C8yExAffO-32" target="diJYGg4Zcv_C8yExAffO-28" edge="1">
          <mxGeometry relative="1" as="geometry" />
        </mxCell>
        <mxCell id="diJYGg4Zcv_C8yExAffO-32" value="任务调度" style="ellipse;whiteSpace=wrap;html=1;aspect=fixed;" parent="1" vertex="1">
          <mxGeometry x="270" y="790" width="80" height="80" as="geometry" />
        </mxCell>
        <mxCell id="diJYGg4Zcv_C8yExAffO-35" value="4" style="edgeStyle=orthogonalEdgeStyle;rounded=0;orthogonalLoop=1;jettySize=auto;html=1;exitX=0;exitY=0;exitDx=0;exitDy=0;entryX=1;entryY=0;entryDx=0;entryDy=0;" parent="1" source="diJYGg4Zcv_C8yExAffO-36" target="diJYGg4Zcv_C8yExAffO-32" edge="1">
          <mxGeometry relative="1" as="geometry" />
        </mxCell>
        <mxCell id="diJYGg4Zcv_C8yExAffO-58" value="" style="edgeStyle=orthogonalEdgeStyle;rounded=0;orthogonalLoop=1;jettySize=auto;html=1;startArrow=none;startFill=0;" parent="1" source="diJYGg4Zcv_C8yExAffO-36" target="diJYGg4Zcv_C8yExAffO-57" edge="1">
          <mxGeometry relative="1" as="geometry" />
        </mxCell>
        <mxCell id="diJYGg4Zcv_C8yExAffO-59" value="3" style="edgeLabel;html=1;align=center;verticalAlign=middle;resizable=0;points=[];" parent="diJYGg4Zcv_C8yExAffO-58" vertex="1" connectable="0">
          <mxGeometry x="0.1" relative="1" as="geometry">
            <mxPoint as="offset" />
          </mxGeometry>
        </mxCell>
        <mxCell id="diJYGg4Zcv_C8yExAffO-36" value="格式转换&lt;br&gt;程序" style="ellipse;whiteSpace=wrap;html=1;aspect=fixed;" parent="1" vertex="1">
          <mxGeometry x="430" y="790" width="80" height="80" as="geometry" />
        </mxCell>
        <mxCell id="diJYGg4Zcv_C8yExAffO-38" value="步骤三：格式转换" style="text;html=1;strokeColor=none;fillColor=none;align=center;verticalAlign=middle;whiteSpace=wrap;rounded=0;" parent="1" vertex="1">
          <mxGeometry x="120" y="700" width="100" height="20" as="geometry" />
        </mxCell>
        <mxCell id="diJYGg4Zcv_C8yExAffO-39" value="" style="edgeStyle=orthogonalEdgeStyle;rounded=0;orthogonalLoop=1;jettySize=auto;html=1;exitX=1;exitY=1;exitDx=0;exitDy=0;entryX=0;entryY=1;entryDx=0;entryDy=0;" parent="1" source="diJYGg4Zcv_C8yExAffO-41" target="diJYGg4Zcv_C8yExAffO-45" edge="1">
          <mxGeometry relative="1" as="geometry" />
        </mxCell>
        <mxCell id="diJYGg4Zcv_C8yExAffO-40" value="1" style="edgeLabel;html=1;align=center;verticalAlign=middle;resizable=0;points=[];" parent="diJYGg4Zcv_C8yExAffO-39" vertex="1" connectable="0">
          <mxGeometry x="-0.05" y="1" relative="1" as="geometry">
            <mxPoint as="offset" />
          </mxGeometry>
        </mxCell>
        <mxCell id="diJYGg4Zcv_C8yExAffO-41" value="前端" style="ellipse;whiteSpace=wrap;html=1;aspect=fixed;" parent="1" vertex="1">
          <mxGeometry x="110" y="1020" width="80" height="80" as="geometry" />
        </mxCell>
        <mxCell id="diJYGg4Zcv_C8yExAffO-42" value="" style="edgeStyle=orthogonalEdgeStyle;rounded=0;orthogonalLoop=1;jettySize=auto;html=1;exitX=1;exitY=1;exitDx=0;exitDy=0;entryX=0;entryY=1;entryDx=0;entryDy=0;" parent="1" source="diJYGg4Zcv_C8yExAffO-45" target="diJYGg4Zcv_C8yExAffO-47" edge="1">
          <mxGeometry relative="1" as="geometry" />
        </mxCell>
        <mxCell id="diJYGg4Zcv_C8yExAffO-43" value="2" style="edgeLabel;html=1;align=center;verticalAlign=middle;resizable=0;points=[];" parent="diJYGg4Zcv_C8yExAffO-42" vertex="1" connectable="0">
          <mxGeometry relative="1" as="geometry">
            <mxPoint as="offset" />
          </mxGeometry>
        </mxCell>
        <mxCell id="diJYGg4Zcv_C8yExAffO-44" value="5" style="edgeStyle=orthogonalEdgeStyle;rounded=0;orthogonalLoop=1;jettySize=auto;html=1;exitX=0;exitY=0;exitDx=0;exitDy=0;entryX=1;entryY=0;entryDx=0;entryDy=0;" parent="1" source="diJYGg4Zcv_C8yExAffO-45" target="diJYGg4Zcv_C8yExAffO-41" edge="1">
          <mxGeometry relative="1" as="geometry" />
        </mxCell>
        <mxCell id="diJYGg4Zcv_C8yExAffO-45" value="任务调度" style="ellipse;whiteSpace=wrap;html=1;aspect=fixed;" parent="1" vertex="1">
          <mxGeometry x="270" y="1020" width="80" height="80" as="geometry" />
        </mxCell>
        <mxCell id="diJYGg4Zcv_C8yExAffO-46" value="4" style="edgeStyle=orthogonalEdgeStyle;rounded=0;orthogonalLoop=1;jettySize=auto;html=1;exitX=0;exitY=0;exitDx=0;exitDy=0;entryX=1;entryY=0;entryDx=0;entryDy=0;" parent="1" source="diJYGg4Zcv_C8yExAffO-47" target="diJYGg4Zcv_C8yExAffO-45" edge="1">
          <mxGeometry relative="1" as="geometry" />
        </mxCell>
        <mxCell id="diJYGg4Zcv_C8yExAffO-61" value="" style="edgeStyle=orthogonalEdgeStyle;rounded=0;orthogonalLoop=1;jettySize=auto;html=1;startArrow=none;startFill=0;" parent="1" source="diJYGg4Zcv_C8yExAffO-47" target="diJYGg4Zcv_C8yExAffO-60" edge="1">
          <mxGeometry relative="1" as="geometry" />
        </mxCell>
        <mxCell id="diJYGg4Zcv_C8yExAffO-47" value="着色程序" style="ellipse;whiteSpace=wrap;html=1;aspect=fixed;" parent="1" vertex="1">
          <mxGeometry x="430" y="1020" width="80" height="80" as="geometry" />
        </mxCell>
        <mxCell id="diJYGg4Zcv_C8yExAffO-48" value="步骤四：着色程序更新地图" style="text;html=1;strokeColor=none;fillColor=none;align=center;verticalAlign=middle;whiteSpace=wrap;rounded=0;" parent="1" vertex="1">
          <mxGeometry x="120" y="930" width="160" height="20" as="geometry" />
        </mxCell>
        <mxCell id="diJYGg4Zcv_C8yExAffO-57" value="资源服务器" style="ellipse;whiteSpace=wrap;html=1;aspect=fixed;" parent="1" vertex="1">
          <mxGeometry x="590" y="790" width="80" height="80" as="geometry" />
        </mxCell>
        <mxCell id="diJYGg4Zcv_C8yExAffO-60" value="资源服务器" style="ellipse;whiteSpace=wrap;html=1;aspect=fixed;" parent="1" vertex="1">
          <mxGeometry x="590" y="1020" width="80" height="80" as="geometry" />
        </mxCell>
        <mxCell id="RVOC5Pfrwt1u8xIZYk97-2" value="" style="edgeStyle=orthogonalEdgeStyle;rounded=0;orthogonalLoop=1;jettySize=auto;html=1;exitX=1;exitY=1;exitDx=0;exitDy=0;entryX=0;entryY=1;entryDx=0;entryDy=0;" edge="1" parent="1" source="RVOC5Pfrwt1u8xIZYk97-4" target="RVOC5Pfrwt1u8xIZYk97-8">
          <mxGeometry relative="1" as="geometry" />
        </mxCell>
        <mxCell id="RVOC5Pfrwt1u8xIZYk97-3" value="1" style="edgeLabel;html=1;align=center;verticalAlign=middle;resizable=0;points=[];" vertex="1" connectable="0" parent="RVOC5Pfrwt1u8xIZYk97-2">
          <mxGeometry x="-0.05" y="1" relative="1" as="geometry">
            <mxPoint as="offset" />
          </mxGeometry>
        </mxCell>
        <mxCell id="RVOC5Pfrwt1u8xIZYk97-4" value="前端" style="ellipse;whiteSpace=wrap;html=1;aspect=fixed;" vertex="1" parent="1">
          <mxGeometry x="110" y="1350" width="80" height="80" as="geometry" />
        </mxCell>
        <mxCell id="RVOC5Pfrwt1u8xIZYk97-5" value="" style="edgeStyle=orthogonalEdgeStyle;rounded=0;orthogonalLoop=1;jettySize=auto;html=1;exitX=1;exitY=1;exitDx=0;exitDy=0;entryX=0;entryY=1;entryDx=0;entryDy=0;" edge="1" parent="1" source="RVOC5Pfrwt1u8xIZYk97-8" target="RVOC5Pfrwt1u8xIZYk97-12">
          <mxGeometry relative="1" as="geometry" />
        </mxCell>
        <mxCell id="RVOC5Pfrwt1u8xIZYk97-6" value="2" style="edgeLabel;html=1;align=center;verticalAlign=middle;resizable=0;points=[];" vertex="1" connectable="0" parent="RVOC5Pfrwt1u8xIZYk97-5">
          <mxGeometry relative="1" as="geometry">
            <mxPoint as="offset" />
          </mxGeometry>
        </mxCell>
        <mxCell id="RVOC5Pfrwt1u8xIZYk97-7" value="8" style="edgeStyle=orthogonalEdgeStyle;rounded=0;orthogonalLoop=1;jettySize=auto;html=1;exitX=0;exitY=0;exitDx=0;exitDy=0;entryX=1;entryY=0;entryDx=0;entryDy=0;" edge="1" parent="1" source="RVOC5Pfrwt1u8xIZYk97-8" target="RVOC5Pfrwt1u8xIZYk97-4">
          <mxGeometry relative="1" as="geometry" />
        </mxCell>
        <mxCell id="RVOC5Pfrwt1u8xIZYk97-8" value="任务调度" style="ellipse;whiteSpace=wrap;html=1;aspect=fixed;" vertex="1" parent="1">
          <mxGeometry x="270" y="1350" width="80" height="80" as="geometry" />
        </mxCell>
        <mxCell id="RVOC5Pfrwt1u8xIZYk97-9" value="7" style="edgeStyle=orthogonalEdgeStyle;rounded=0;orthogonalLoop=1;jettySize=auto;html=1;exitX=0;exitY=0;exitDx=0;exitDy=0;entryX=1;entryY=0;entryDx=0;entryDy=0;" edge="1" parent="1" source="RVOC5Pfrwt1u8xIZYk97-12" target="RVOC5Pfrwt1u8xIZYk97-8">
          <mxGeometry relative="1" as="geometry" />
        </mxCell>
        <mxCell id="RVOC5Pfrwt1u8xIZYk97-10" value="" style="edgeStyle=orthogonalEdgeStyle;rounded=0;orthogonalLoop=1;jettySize=auto;html=1;startArrow=none;startFill=0;" edge="1" parent="1" source="RVOC5Pfrwt1u8xIZYk97-12" target="RVOC5Pfrwt1u8xIZYk97-14">
          <mxGeometry relative="1" as="geometry" />
        </mxCell>
        <mxCell id="RVOC5Pfrwt1u8xIZYk97-11" value="3" style="edgeLabel;html=1;align=center;verticalAlign=middle;resizable=0;points=[];" vertex="1" connectable="0" parent="RVOC5Pfrwt1u8xIZYk97-10">
          <mxGeometry x="0.1" relative="1" as="geometry">
            <mxPoint as="offset" />
          </mxGeometry>
        </mxCell>
        <mxCell id="RVOC5Pfrwt1u8xIZYk97-17" value="" style="edgeStyle=orthogonalEdgeStyle;rounded=0;orthogonalLoop=1;jettySize=auto;html=1;" edge="1" parent="1" source="RVOC5Pfrwt1u8xIZYk97-12" target="RVOC5Pfrwt1u8xIZYk97-16">
          <mxGeometry relative="1" as="geometry" />
        </mxCell>
        <mxCell id="RVOC5Pfrwt1u8xIZYk97-20" value="4" style="edgeLabel;html=1;align=center;verticalAlign=middle;resizable=0;points=[];" vertex="1" connectable="0" parent="RVOC5Pfrwt1u8xIZYk97-17">
          <mxGeometry x="0.1" y="-1" relative="1" as="geometry">
            <mxPoint as="offset" />
          </mxGeometry>
        </mxCell>
        <mxCell id="RVOC5Pfrwt1u8xIZYk97-12" value="格式转换&lt;br&gt;程序" style="ellipse;whiteSpace=wrap;html=1;aspect=fixed;" vertex="1" parent="1">
          <mxGeometry x="430" y="1350" width="80" height="80" as="geometry" />
        </mxCell>
        <mxCell id="RVOC5Pfrwt1u8xIZYk97-13" value="步骤三：格式转换" style="text;html=1;strokeColor=none;fillColor=none;align=center;verticalAlign=middle;whiteSpace=wrap;rounded=0;" vertex="1" parent="1">
          <mxGeometry x="120" y="1260" width="100" height="20" as="geometry" />
        </mxCell>
        <mxCell id="RVOC5Pfrwt1u8xIZYk97-14" value="资源服务器" style="ellipse;whiteSpace=wrap;html=1;aspect=fixed;" vertex="1" parent="1">
          <mxGeometry x="590" y="1350" width="80" height="80" as="geometry" />
        </mxCell>
        <mxCell id="RVOC5Pfrwt1u8xIZYk97-19" value="" style="edgeStyle=orthogonalEdgeStyle;rounded=0;orthogonalLoop=1;jettySize=auto;html=1;exitX=1;exitY=1;exitDx=0;exitDy=0;entryX=0;entryY=1;entryDx=0;entryDy=0;" edge="1" parent="1" source="RVOC5Pfrwt1u8xIZYk97-16" target="RVOC5Pfrwt1u8xIZYk97-18">
          <mxGeometry relative="1" as="geometry" />
        </mxCell>
        <mxCell id="RVOC5Pfrwt1u8xIZYk97-21" value="6" style="edgeLabel;html=1;align=center;verticalAlign=middle;resizable=0;points=[];" vertex="1" connectable="0" parent="RVOC5Pfrwt1u8xIZYk97-19">
          <mxGeometry x="0.075" y="1" relative="1" as="geometry">
            <mxPoint as="offset" />
          </mxGeometry>
        </mxCell>
        <mxCell id="RVOC5Pfrwt1u8xIZYk97-16" value="分隔" style="ellipse;whiteSpace=wrap;html=1;aspect=fixed;fillColor=#f5f5f5;strokeColor=#666666;fontColor=#333333;dashed=1;" vertex="1" parent="1">
          <mxGeometry x="430" y="1510" width="80" height="80" as="geometry" />
        </mxCell>
        <mxCell id="RVOC5Pfrwt1u8xIZYk97-24" value="5" style="edgeStyle=orthogonalEdgeStyle;rounded=0;orthogonalLoop=1;jettySize=auto;html=1;exitX=0;exitY=0;exitDx=0;exitDy=0;entryX=1;entryY=0;entryDx=0;entryDy=0;" edge="1" parent="1">
          <mxGeometry relative="1" as="geometry">
            <mxPoint x="602.7157287525379" y="1521.7157287525379" as="sourcePoint" />
            <mxPoint x="499.28427124746213" y="1521.7157287525379" as="targetPoint" />
          </mxGeometry>
        </mxCell>
        <mxCell id="RVOC5Pfrwt1u8xIZYk97-18" value="保存到平台" style="ellipse;whiteSpace=wrap;html=1;aspect=fixed;fillColor=#f5f5f5;strokeColor=#666666;fontColor=#333333;dashed=1;" vertex="1" parent="1">
          <mxGeometry x="590" y="1510" width="80" height="80" as="geometry" />
        </mxCell>
      </root>
    </mxGraphModel>
  </diagram>
</mxfile>
